<?xml version="1.0" encoding="utf-8"?>
<!-- Generator: Adobe Illustrator 15.0.0, SVG Export Plug-In . SVG Version: 6.00 Build 0)  -->
<!DOCTYPE svg PUBLIC "-//W3C//DTD SVG 1.1//EN" "http://www.w3.org/Graphics/SVG/1.1/DTD/svg11.dtd">
<svg version="1.1" id="Layer_1" xmlns="http://www.w3.org/2000/svg" xmlns:xlink="http://www.w3.org/1999/xlink" x="0px" y="0px"
	 width="1000px" height="302px" viewBox="0 0 1000 302" enable-background="new 0 0 1000 302" xml:space="preserve">
<g>
	<path fill-rule="evenodd" clip-rule="evenodd" fill="#689F38" d="M1000,170.37c-4.83-1.343-10.335-2.011-14.814-3.704
		c1.83-14.227,3.003-42.292-8.334-50c-7.604-5.17-22.615-4.944-32.407-2.778c-18.464,4.085-26.784,28.98-35.186,42.593
		c-11.431-2.415-25.89-4.784-36.11-5.556c-3.096-1.764-4.379-4.854-6.481-7.407c-5.868-7.125-14.586-17.154-23.148-20.371
		c-29.782-11.187-49.072,7.819-63.889,24.074c-14.385,1.051-32.941,2.857-45.371,2.778c-11.854-3.369-13.702-11.35-24.073-12.963
		c-21.845-3.398-38.659,4.642-46.297,14.815c-2.63,3.502-5.274,9.773-9.259,12.037c-8.403,4.774-23.789,3.585-33.334,5.556
		c-11.808,2.438-21.652,5.746-33.333,6.481c-5.277-19.965-24.631-35.75-48.148-29.629c-18.082,4.706-25.798,28.486-30.556,47.222
		c-19.108,2.496-34.105,9.104-52.777,12.037c-8.927-10.209-13.302-24.97-21.296-36.111c-18.062-7.074-57.125-8.332-74.074,1.852
		c-15.607,9.377-13.902,33.826-25.926,46.296c-20.991-1.836-40.292-0.63-58.333-1.852c-5.413-25.976-4.771-51.842-34.259-50.926
		c-31.995,0.994-40.15,26.693-53.704,44.444c-13.488-0.137-29.448-5.703-44.444-7.408c-7.354-19.833-21.778-41.358-48.148-40.74
		c-18.134,0.424-31.775,19.977-47.222,21.296C41.163,183.083,32.444,177.499,25,175c-8.735-2.933-16.425-5.484-25-7.407
		C0,111.728,0,55.865,0,0c333.321,0,666.686,0,1000,0C1000,56.791,1000,113.58,1000,170.37z"/>
	<path fill-rule="evenodd" clip-rule="evenodd" fill="#EEEEEE" d="M947.223,124.074c-4.768,11.899-12.153,21.18-12.964,37.037
		c7.908-2.306,7.995-13.407,11.111-20.371c3.255-7.274,6.159-15.484,13.889-17.593c1.56,7.441-7.228,20.464-2.777,27.778
		c8.004-4.341,4.68-20.011,11.111-25.926c10.236,4.001,10.031,22.722,10.185,32.407c0.146,9.167-1.357,17.153-0.926,26.852
		c-12.497,16.515-24.333,33.692-40.74,46.296c-14.959-10.675-34.983-37.229-25-59.259c1.792-3.955,5.828-8.12,8.333-12.963
		C925.613,146.408,934.539,125.803,947.223,124.074z"/>
	<path fill-rule="evenodd" clip-rule="evenodd" fill="#EEEEEE" d="M837.963,161.111c9.808-5.371-1.921-18.863-1.852-28.704
		c18.507,3.072,22.565,37.55,14.814,54.63c-2.824,6.223-8.542,9.837-13.889,17.593c-3.911,5.673-7.96,16.482-13.889,16.667
		c-6.532,0.203-16.342-15.725-19.445-19.445c-4.373-5.241-15.237-16.389-16.666-22.222c-3.341-13.644,5.368-21.773,6.481-31.482
		c7.351-4.069,8.852-13.988,19.444-14.814c-1.672,14.417-14.578,25.742-8.333,39.814c5.208-5.187,5.441-13.531,8.333-20.37
		c2.927-6.924,6.02-14.365,8.333-20.371c0.327-1.216,1.63-1.456,1.853-2.777c1.076-0.151,1.647,0.204,1.852,0.926
		C832.848,137.214,830.295,154.273,837.963,161.111z"/>
	<path fill-rule="evenodd" clip-rule="evenodd" fill="#EEEEEE" d="M694.444,147.222c5.058,6.054,4.867,17.355,12.037,21.296
		c7.038-5.172-2.521-12.845-1.852-20.371c7.267-2.165,12.555,5.226,18.519,7.408c2.355,12.922,17.494,20.565,16.666,36.111
		c-0.433,8.135-9.144,18.569-13.889,24.074c-3.367,3.907-13.962,16.921-19.444,17.593c-11.057,1.353-33.716-22.241-38.889-29.63
		c-10.854-15.503,6.141-41.149,11.111-53.704C683.839,148.963,688.107,147.058,694.444,147.222z"/>
	<path fill-rule="evenodd" clip-rule="evenodd" fill="#EEEEEE" d="M558.333,157.407c1.189,13.535-2.94,32.071,5.556,34.259
		c1.421-8.036-3.706-23.789,0.926-32.407c11.694,2.604,9.002,13.289,13.89,24.074c8.049,17.764,35.075,30.003,13.889,51.852
		c-4.427,4.565-13.114,9.997-20.37,16.667c-6.553,6.023-14.636,15.57-22.223,14.815c-7.764-0.772-15.777-16.88-21.296-24.074
		c-7.689-10.021-18.687-18.442-16.667-36.111c0.712-6.23,4.36-14.854,6.481-20.37c4.595-11.949,13.465-23.586,22.222-27.778
		c-2.799,12.057-12.011,22.5-11.11,35.185c11.032-8.104,11.463-26.809,19.444-37.963
		C552.414,155.92,555.283,156.754,558.333,157.407z"/>
	<path fill-rule="evenodd" clip-rule="evenodd" fill="#EEEEEE" d="M778.703,159.259c-7.127,12.288-4.348,30.567,8.334,35.185
		c-8.029,13.434-23.798,29.125-42.593,12.963c11.308-14.889,2.914-32.248-4.63-45.37c4.629-0.927,8.932-2.18,14.815-1.852
		c5.003,4.874,3.695,16.058,12.037,17.593c5.219-4.919-4.715-9.033-2.778-16.667C766.718,158.385,773.328,159.439,778.703,159.259z"
		/>
	<path fill-rule="evenodd" clip-rule="evenodd" fill="#EEEEEE" d="M879.63,162.963c0.203,8.479-3.911,23.425,1.852,28.704
		c5.68-5.123,2.051-19.554,5.556-26.852c5.993,0.179,12.191,0.154,15.74,2.778c-5.404,8.693,0.026,17.997-1.852,25.926
		c-2.588,10.926-17.922,16.459-24.074,24.074c-9.813-4.076-11.348-16.43-20.37-21.296c5.482-9.333,9.12-20.51,10.186-34.259
		C871.204,161.417,874.911,161.744,879.63,162.963z"/>
	<path fill-rule="evenodd" clip-rule="evenodd" fill="#EEEEEE" d="M94.444,171.296c2.532,6.563-6.378,11.12-11.111,15.741
		c-5.373,5.244-10.381,11.157-13.889,16.667c5.643,4.777,9.396-4.035,12.963-7.407c3.794-3.587,9.418-7.009,12.963-11.111
		c3.718-4.301,5.45-11.896,12.037-12.037c6.255,7.729-6.076,27.985,3.704,33.333c9.652-1.459,1.555-20.667,5.555-27.778
		c14.83,7.997,11.361,41.771,1.852,54.63c-4.654,6.293-15.665,10.107-24.074,13.889c-9.1,4.092-18.671,9.681-27.778,9.259
		c-4.418-6.18-7.201-13.728-10.185-21.296c-2.796-7.094-7.833-15.498-8.333-22.222C46.409,189.618,76.29,180.328,94.444,171.296z"/>
	<path fill-rule="evenodd" clip-rule="evenodd" fill="#EEEEEE" d="M429.629,212.037c1.451-9.624-8.626-23.363-10.185-36.111
		c16.363,0.981,18.684,22.438,24.074,34.259c2.795,6.131,7.692,9.708,4.629,19.445c-3.291,10.463-14.647,17.914-23.148,27.777
		c-9.313,10.805-13.871,20.736-22.222,27.778c-12.75,10.751-29.201-4.515-39.815-12.037c-10.964-7.771-20.673-12.283-28.704-20.37
		c2.549-17.734,11.069-31.464,17.593-46.296c4.459-10.14,8.403-23.278,18.518-27.778c1.199,16.116-9.502,29.866-6.481,41.667
		c6.437,1.741,6.025-8.248,7.408-13.889c2.171-8.859,5.354-16.648,4.629-28.704c2.919-2.328,7.631-2.862,12.963-2.778
		c4.166,5.711,1.575,18.178,5.556,24.074c8.436-3.215,0.315-16.882,1.852-25c2.443-1.296,10.587-1.711,12.963,0
		C419.377,183.4,416.953,205.269,429.629,212.037z"/>
	<path fill-rule="evenodd" clip-rule="evenodd" fill="#EEEEEE" d="M242.593,175c1.516,6.662-5.716,20.926-0.926,27.778
		c8.801-3.544,2.326-22.365,10.186-26.852c7.979,0.699,8.982,12.421,11.111,20.371c4.758,17.767,10.547,33.791-0.926,49.074
		c-4.239,5.647-12.522,12.522-19.444,19.445c-4.601,4.6-14.316,18.215-20.371,18.519c-6.678,0.334-18.3-12.999-22.222-17.593
		c-8.842-10.356-17.201-26.694-9.259-41.667c3.961-7.469,12.248-17.615,17.593-25.926c5.98-9.3,13.111-18.61,21.296-22.222
		c-1.109,11.061-13.773,23.164-11.111,37.963c6.98-0.236,6.744-11.007,9.259-17.592c3.056-7.999,7.092-15.182,11.111-21.296
		C240.124,175,241.358,175,242.593,175z"/>
	<path fill-rule="evenodd" clip-rule="evenodd" fill="#EEEEEE" d="M1000,196.296c0,13.271,0,26.543,0,39.815
		c-4.224-3.847-8.798-8.807-12.963-14.815c-3.103-4.475-11.125-13.374-11.111-17.593c0.029-9.164,13.264-11.413,12.037-23.148
		c4.497,0.132,7.799,1.46,11.111,2.778C999.11,187.024,993.916,195.154,1000,196.296z"/>
	<path fill-rule="evenodd" clip-rule="evenodd" fill="#EEEEEE" d="M0,208.333c0-2.469,0-4.938,0-7.408
		c3.715-5.235,6.54-11.361,7.407-19.444c5.473,0.7,9.837,2.508,13.889,4.63c-0.093,7.494-10.553,17.863,1.852,19.444
		c3.265-4.452,3.564-11.868,8.333-14.815c4.379-0.675,6.087,1.32,8.333,2.778c-3.984,6.753-4.589,17.04-3.704,24.074
		c-3.131,5.82-9.933,7.969-16.667,10.185C12.927,221.333,7.153,214.143,0,208.333z"/>
	<path fill-rule="evenodd" clip-rule="evenodd" fill="#EEEEEE" d="M501.852,208.333c-3.167,14.143,7.389,22.113,12.037,31.481
		c-9.253,10.128-14.171,29.916-28.704,32.407c-15.586,2.672-26.348-14.551-39.815-19.444c4.733-11.007,15.538-15.944,14.815-32.408
		c4.326-4.007,11.226-5.441,18.519-6.481c3.034,6.535,4.698,14.438,7.408,21.296c9.877-0.961,0.453-15.143,2.777-23.148
		C492.274,209.867,495.986,208.023,501.852,208.333z"/>
	<path fill-rule="evenodd" clip-rule="evenodd" fill="#EEEEEE" d="M326.852,229.63c-2.5,12.387-5.063,27.966,3.704,35.185
		c-7.972,4.886-12.914,17.331-22.222,17.592c-11.996,0.337-32.411-24.197-39.815-30.556c6.102-5.935,10.278-13.796,12.963-23.148
		c4.012,0,8.025,0,12.037,0c0.815,5.38-4.852,10.709,0.926,12.963c6.45-0.031,5.176-7.787,7.408-12.037
		C310.205,226.394,320.917,227.798,326.852,229.63z"/>
	<path fill-rule="evenodd" clip-rule="evenodd" fill="#EEEEEE" d="M908.333,212.037c6.662,11.548,14.016,22.404,25,29.629
		c15.33-6.583,24.854-18.974,34.26-31.481c6.803,5.098,10.716,13.463,15.74,20.371c5.103,7.014,9.782,14.245,16.667,19.444
		c0,0.309,0,0.617,0,0.926c-13.135-10.322-21.745-25.168-30.556-39.814c-9.218,5.722-22.116,31.468-35.186,31.481
		C925.52,242.602,912.17,221.446,908.333,212.037z"/>
	<path fill-rule="evenodd" clip-rule="evenodd" fill="#EEEEEE" d="M871.296,225.926c16.279,4.724,22.857-14.255,32.407-22.222
		c2.44-0.279,3.039,1.282,2.778,3.704c-1.334-0.209-0.323-2.764-1.852-2.777c-10.379,7.268-16.641,27.303-33.334,22.222
		C871.296,226.543,871.296,226.234,871.296,225.926z"/>
	<path fill-rule="evenodd" clip-rule="evenodd" fill="#EEEEEE" d="M827.777,233.333c10.212-7.381,12.598-22.588,22.223-30.556
		c8.712,5.794,13.287,15.725,20.37,23.148c-8.536-5.353-11.632-16.146-19.444-22.222
		C840.602,210.972,839.544,227.507,827.777,233.333z"/>
	<path fill-rule="evenodd" clip-rule="evenodd" fill="#EEEEEE" d="M794.444,203.704c8.674,12.005,14.455,26.903,32.407,29.63
		C811.845,234.903,801.208,216.506,794.444,203.704z"/>
	<path fill-rule="evenodd" clip-rule="evenodd" fill="#EEEEEE" d="M794.444,202.778c-10.126,6.232-12.427,20.29-26.852,22.222
		C780.72,222.383,784.686,205.677,794.444,202.778z"/>
	<path fill-rule="evenodd" clip-rule="evenodd" fill="#EEEEEE" d="M753.703,222.222c3.825,1.422,8.137,2.358,12.964,2.778
		C763.59,226.5,755.819,224.762,753.703,222.222z"/>
	<path fill-rule="evenodd" clip-rule="evenodd" fill="#EEEEEE" d="M713.889,240.741c8.477-7.264,15.121-16.361,23.148-24.074
		C730.268,225.024,721.854,236.664,713.889,240.741z"/>
	<path fill-rule="evenodd" clip-rule="evenodd" fill="#EEEEEE" d="M691.667,237.037c3.537,2.327,7.784,3.944,11.11,6.481
		C698.309,242.124,694.359,240.208,691.667,237.037z"/>
	<path fill-rule="evenodd" clip-rule="evenodd" fill="#EEEEEE" d="M676.852,227.778c5.253,2.463,9.881,5.551,13.889,9.259
		C685.488,234.574,680.86,231.485,676.852,227.778z"/>
	<path fill-rule="evenodd" clip-rule="evenodd" fill="#EEEEEE" d="M670.37,234.259c-0.735,3.586-2.035,6.607-4.63,8.333
		C667.407,239.938,668.181,236.391,670.37,234.259z"/>
	<path fill-rule="evenodd" clip-rule="evenodd" fill="#EEEEEE" d="M662.037,249.074c-1.972,5.744-4.955,10.477-9.26,13.889
		C656.335,258.804,658.939,253.693,662.037,249.074z"/>
	<path fill-rule="evenodd" clip-rule="evenodd" fill="#EEEEEE" d="M605.556,250.926c6.378,3.499,13.002,6.75,17.593,12.037
		C617.615,258.62,610.627,255.73,605.556,250.926z"/>
	<path fill-rule="evenodd" clip-rule="evenodd" fill="#EEEEEE" d="M547.223,277.778c24.972-0.955,29.787-27.001,49.073-30.556
		C576.486,253.339,571.281,278.996,547.223,277.778z"/>
	<path fill-rule="evenodd" clip-rule="evenodd" fill="#EEEEEE" d="M536.111,269.444c3.359,2.813,6.531,5.814,10.185,8.333
		C541.36,276.541,538.699,273.029,536.111,269.444z"/>
	<path fill-rule="evenodd" clip-rule="evenodd" fill="#EEEEEE" d="M523.148,250c2.86,3.003,5.043,6.685,7.407,10.185
		C527.29,257.586,525.102,253.911,523.148,250z"/>
	<path fill-rule="evenodd" clip-rule="evenodd" fill="#EEEEEE" d="M519.444,250c-5.276,6.452-9.477,13.98-15.74,19.444
		C509.292,263.305,512.914,255.198,519.444,250z"/>
	<path fill-rule="evenodd" clip-rule="evenodd" fill="#EEEEEE" d="M485.185,284.259c9.274-1.528,13.004-8.601,18.519-13.889
		C499.136,276.605,495.66,283.932,485.185,284.259z"/>
	<path fill-rule="evenodd" clip-rule="evenodd" fill="#EEEEEE" d="M458.333,271.296c4.84,2.876,10.535,4.897,13.889,9.259
		C467.833,277.229,462.038,275.308,458.333,271.296z"/>
	<path fill-rule="evenodd" clip-rule="evenodd" fill="#EEEEEE" d="M439.815,261.111c4.377,2.413,8.93,4.649,12.963,7.407
		C447.664,266.842,443.283,264.433,439.815,261.111z"/>
	<path fill-rule="evenodd" clip-rule="evenodd" fill="#EEEEEE" d="M437.963,261.111c-6.931,2.945-9.321,10.432-14.815,14.814
		C427.17,270.681,432.17,261.502,437.963,261.111z"/>
	<path fill-rule="evenodd" clip-rule="evenodd" fill="#EEEEEE" d="M396.296,299.074c13.589-2.769,18.425-14.291,26.852-22.223
		C415.79,285.852,411.083,297.503,396.296,299.074z"/>
	<path fill-rule="evenodd" clip-rule="evenodd" fill="#EEEEEE" d="M371.296,290.741c4.958,2.758,10.468,4.964,15.741,7.407
		C380.531,296.938,375.365,294.388,371.296,290.741z"/>
	<path fill-rule="evenodd" clip-rule="evenodd" fill="#EEEEEE" d="M340.741,272.222c13.015-0.666,19.475,13.238,29.629,18.519
		C359.27,286.303,352.735,272.718,340.741,272.222z"/>
	<path fill-rule="evenodd" clip-rule="evenodd" fill="#EEEEEE" d="M334.259,274.074c-5.391,6.954-10.623,14.068-19.444,17.592
		C322.475,286.981,327.979,280.139,334.259,274.074z"/>
	<path fill-rule="evenodd" clip-rule="evenodd" fill="#EEEEEE" d="M258.333,262.963c8.2-2.98,15.115,7.03,21.296,12.037
		c6.958,5.636,14.573,10.463,20.371,15.741c-14.706-8.134-24.802-20.877-39.815-28.704
		C259.435,262.213,259.262,262.966,258.333,262.963z"/>
	<path fill-rule="evenodd" clip-rule="evenodd" fill="#EEEEEE" d="M257.407,262.963c-3.267,6.609-9.255,10.498-13.889,15.741
		C246.974,272.282,253.151,268.583,257.407,262.963z"/>
	<path fill-rule="evenodd" clip-rule="evenodd" fill="#EEEEEE" d="M229.629,289.815c3.037-4.371,8.502-6.313,12.037-10.186
		C238.719,284.09,233.951,286.729,229.629,289.815z"/>
	<path fill-rule="evenodd" clip-rule="evenodd" fill="#EEEEEE" d="M193.519,272.222c10.922,5.826,20.884,29.647,35.185,17.593
		C215.773,303.744,202.702,279.481,193.519,272.222z"/>
	<path fill-rule="evenodd" clip-rule="evenodd" fill="#EEEEEE" d="M152.778,276.852c8.631-7.109,18.836-12.645,28.704-18.518
		c5.558,2.775,7.877,8.789,12.037,12.963c-4.451-3.266-7.177-8.255-11.111-12.037C171.564,264.157,162.885,271.218,152.778,276.852z
		"/>
	<path fill-rule="evenodd" clip-rule="evenodd" fill="#EEEEEE" d="M136.111,276.852c4.043,3.822,11.377,2.891,15.741,0
		C148.967,281.162,138.69,281.988,136.111,276.852z"/>
	<path fill-rule="evenodd" clip-rule="evenodd" fill="#EEEEEE" d="M121.296,261.111c5.9,3.976,8.833,10.92,13.889,15.74
		C128.815,273.345,126.589,265.694,121.296,261.111z"/>
	<path fill-rule="evenodd" clip-rule="evenodd" fill="#EEEEEE" d="M93.519,257.407c6.404-3.122,18.062-11.01,22.222-0.926
		C109.897,248.044,101.665,255.617,93.519,257.407z"/>
	<path fill-rule="evenodd" clip-rule="evenodd" fill="#EEEEEE" d="M81.481,263.889c2.504-3.36,7.586-4.142,11.111-6.481
		C89.881,260.56,85.306,261.849,81.481,263.889z"/>
	<path fill-rule="evenodd" clip-rule="evenodd" fill="#EEEEEE" d="M40.741,229.63c10.801,10.187,10.529,31.446,24.074,38.889
		C50.07,262.276,50.467,240.891,40.741,229.63z"/>
	<path fill-rule="evenodd" clip-rule="evenodd" fill="#EEEEEE" d="M5.556,227.778c5.754,3.196,6.792,11.109,17.592,9.259
		C14.091,240.834,9.431,232.245,5.556,227.778z"/>
	<path fill-rule="evenodd" clip-rule="evenodd" fill="#EEEEEE" d="M603.704,238.889c13.603-15.825,5.664-38.256-5.556-50.926
		c7.44-2.436,14.595-5.158,24.074-5.556c4.347,3.417,4.324,14.935,12.036,12.037c2.575-4.505-3.39-7.439-1.852-13.889
		c4.163-2.193,13-4.034,18.519-1.852c-7.558,17.268,7.399,29.05,14.814,39.815c-5.727,9.786-14.087,40.995-25,42.593
		C628.986,262.832,614.222,240.769,603.704,238.889z"/>
	<path fill-rule="evenodd" clip-rule="evenodd" fill="#EEEEEE" d="M153.704,215.741c-1.378,7.975-5.785,21.433-1.852,28.704
		c10.019-2.327,4.604-20.087,10.185-26.852c7.242-0.144,12.345,1.853,18.519,2.777c-2.125,8.659-6.809,17.064-2.778,26.852
		c-3.342,4.983-9.495,9.014-15.741,12.963c-4.838,3.059-13.95,9.632-18.519,9.259c-11.019-0.898-12.297-19.437-23.148-23.148
		c8.373-8.603,15.603-18.348,18.519-32.408C143.546,211.435,149.902,214.348,153.704,215.741z"/>
	<path fill-rule="evenodd" clip-rule="evenodd" fill="#717171" d="M1000,170.37c0,8.642,0,17.284,0,25.926
		c-6.084-1.143-0.89-9.272-0.926-12.963c-3.313-1.318-6.614-2.646-11.111-2.778c1.227,11.735-12.008,13.984-12.037,23.148
		c-0.014,4.219,8.009,13.118,11.111,17.593c4.165,6.008,8.739,10.968,12.963,14.815c0,4.629,0,9.259,0,13.889
		c-6.885-5.199-11.564-12.431-16.667-19.444c-5.024-6.908-8.938-15.272-15.74-20.371c-9.406,12.508-18.93,24.898-34.26,31.481
		c-10.984-7.225-18.338-18.081-25-29.629c0.144-2.304-1.454-2.866-1.852-4.63c0.261-2.421-0.338-3.982-2.778-3.704
		c-9.55,7.967-16.128,26.946-32.407,22.222c-0.309,0-0.617,0-0.926,0c-7.083-7.423-11.658-17.354-20.37-23.148
		c-9.625,7.968-12.011,23.175-22.223,30.556c-0.309,0-0.617,0-0.926,0c-17.952-2.727-23.733-17.625-32.407-29.63
		c0-0.309,0-0.617,0-0.926c-9.759,2.899-13.725,19.605-26.852,22.222c-0.309,0-0.617,0-0.926,0
		c-4.827-0.42-9.139-1.355-12.964-2.778c-5.207-1.74-11.702-6.601-16.666-5.556c-8.027,7.713-14.672,16.81-23.148,24.074
		c-2.693,2.713-6.155,4.738-11.111,2.778c-3.326-2.538-7.573-4.155-11.11-6.481c-0.309,0-0.618,0-0.927,0
		c-4.008-3.708-8.636-6.796-13.889-9.259c-0.926,0-1.852,0-2.777,0c-1.072,2.323-3.689,3.101-3.704,6.481
		c-2.189,2.131-2.963,5.679-4.63,8.333c-0.995,2.399-3.348,3.442-3.703,6.481c-3.098,4.619-5.702,9.73-9.26,13.889
		c-5.338,14.267-21.354,6.87-29.629,0c-4.591-5.287-11.215-8.538-17.593-12.037c-2.915-1.406-5.556-3.087-9.26-3.704
		c-19.286,3.555-24.102,29.601-49.073,30.556c-0.309,0-0.618,0-0.927,0c-3.653-2.519-6.825-5.52-10.185-8.333
		c-1.051-3.887-3.877-6-5.556-9.259c-2.364-3.5-4.547-7.182-7.407-10.185c-0.38-1.164-1.194-1.893-2.778-1.852
		c-0.722,0.205-1.076,0.775-0.926,1.852c-6.53,5.198-10.152,13.305-15.74,19.444c0,0.309,0,0.617,0,0.926
		c-5.515,5.288-9.245,12.361-18.519,13.889c-4.589-0.966-8.771-2.341-12.963-3.704c-3.354-4.362-9.049-6.383-13.889-9.259
		c-2.408-0.371-2.792-2.763-5.556-2.778c-4.033-2.758-8.586-4.994-12.963-7.407c-0.618,0-1.235,0-1.852,0
		c-5.792,0.391-10.792,9.569-14.815,14.814c0,0.309,0,0.617,0,0.926c-8.427,7.932-13.262,19.454-26.852,22.223
		c-3.703,0.307-5.14-1.651-9.259-0.926c-5.273-2.443-10.783-4.649-15.741-7.407c-0.309,0-0.617,0-0.926,0
		c-10.155-5.28-16.614-19.184-29.629-18.519c-3.323-0.545-4.479,1.076-6.481,1.852c-6.281,6.065-11.785,12.907-19.444,17.592
		c-2.884,0.511-6.034,0.756-8.333,1.852c-1.767-1.32-4.021-2.152-6.481-2.778c-5.797-5.277-13.412-10.104-20.371-15.741
		c-6.181-5.007-13.096-15.017-21.296-12.037c-0.309,0-0.618,0-0.926,0c-4.256,5.62-10.434,9.319-13.889,15.741
		c-0.929-0.003-1.102,0.75-1.852,0.926c-3.535,3.873-9,5.815-12.037,10.186c-0.309,0-0.617,0-0.926,0
		c-14.301,12.054-24.263-11.767-35.185-17.593c0-0.309,0-0.617,0-0.926c-4.16-4.174-6.479-10.188-12.037-12.963
		c-9.867,5.873-20.072,11.409-28.704,18.518c-0.309,0-0.617,0-0.926,0c-4.363,2.891-11.698,3.822-15.741,0c-0.309,0-0.618,0-0.926,0
		c-5.056-4.82-7.988-11.764-13.889-15.74c-1.539-1.856-2.486-4.304-5.556-4.63c-4.161-10.084-15.818-2.196-22.222,0.926
		c-0.309,0-0.617,0-0.926,0c-3.525,2.34-8.607,3.122-11.111,6.481c-5.706,1.393-8.602,5.596-16.667,4.63
		c-13.545-7.443-13.273-28.702-24.074-38.889c-6.56,1.773-10.495,6.172-17.593,7.407c-10.8,1.85-11.838-6.063-17.592-9.259
		c-0.608-3.405-3.414-4.611-5.556-6.481c0-4.321,0-8.642,0-12.963c7.153,5.81,12.927,12.999,19.444,19.444
		c6.734-2.216,13.536-4.365,16.667-10.185c-0.886-7.034-0.281-17.321,3.704-24.074c-2.247-1.458-3.954-3.453-8.333-2.778
		c-4.77,2.947-5.069,10.363-8.333,14.815c-12.404-1.581-1.944-11.95-1.852-19.444c-4.052-2.122-8.416-3.93-13.889-4.63
		C6.54,189.564,3.715,195.69,0,200.926c0-11.111,0-22.222,0-33.333c8.575,1.923,16.265,4.475,25,7.407
		c7.444,2.499,16.163,8.083,24.074,7.407c15.447-1.319,29.088-20.872,47.222-21.296c26.37-0.618,40.794,20.907,48.148,40.74
		c14.997,1.705,30.956,7.271,44.444,7.408c13.554-17.751,21.709-43.451,53.704-44.444c29.488-0.916,28.847,24.95,34.259,50.926
		c18.042,1.222,37.342,0.016,58.333,1.852c12.024-12.47,10.319-36.919,25.926-46.296c16.949-10.184,56.012-8.926,74.074-1.852
		c7.995,11.142,12.37,25.902,21.296,36.111c18.672-2.933,33.669-9.541,52.777-12.037c4.758-18.736,12.474-42.516,30.556-47.222
		c23.518-6.121,42.871,9.664,48.148,29.629c11.681-0.735,21.525-4.043,33.333-6.481c9.545-1.971,24.931-0.781,33.334-5.556
		c3.984-2.264,6.629-8.534,9.259-12.037c7.638-10.173,24.452-18.213,46.297-14.815c10.371,1.613,12.219,9.594,24.073,12.963
		c12.43,0.079,30.986-1.727,45.371-2.778c14.816-16.255,34.106-35.261,63.889-24.074c8.563,3.217,17.28,13.246,23.148,20.371
		c2.103,2.553,3.386,5.644,6.481,7.407c10.221,0.772,24.68,3.141,36.11,5.556c8.401-13.612,16.722-38.508,35.186-42.593
		c9.792-2.166,24.803-2.393,32.407,2.778c11.337,7.708,10.164,35.773,8.334,50C989.665,168.359,995.17,169.027,1000,170.37z
		 M919.444,158.333c-2.505,4.843-6.541,9.008-8.333,12.963c-9.983,22.031,10.041,48.584,25,59.259
		c16.407-12.604,28.243-29.782,40.74-46.296c-0.432-9.699,1.071-17.685,0.926-26.852c-0.153-9.686,0.052-28.406-10.185-32.407
		c-6.432,5.915-3.107,21.584-11.111,25.926c-4.45-7.313,4.337-20.337,2.777-27.778c-7.729,2.108-10.634,10.319-13.889,17.593
		c-3.116,6.963-3.203,18.064-11.111,20.371c0.811-15.857,8.196-25.138,12.964-37.037
		C934.539,125.803,925.613,146.408,919.444,158.333z M825,130.556c-0.204-0.722-0.775-1.077-1.852-0.926
		c-0.223,1.321-1.525,1.562-1.853,2.777c-2.313,6.006-5.406,13.447-8.333,20.371c-2.892,6.839-3.125,15.183-8.333,20.37
		c-6.245-14.073,6.661-25.397,8.333-39.814c-10.593,0.827-12.094,10.745-19.444,14.814c-1.113,9.709-9.822,17.838-6.481,31.482
		c1.429,5.833,12.293,16.981,16.666,22.222c3.104,3.72,12.913,19.647,19.445,19.445c5.929-0.185,9.978-10.994,13.889-16.667
		c5.347-7.755,11.064-11.37,13.889-17.593c7.751-17.08,3.692-51.558-14.814-54.63c-0.069,9.841,11.659,23.333,1.852,28.704
		C830.295,154.273,832.848,137.214,825,130.556z M678.704,150c-4.971,12.554-21.965,38.201-11.111,53.704
		c5.173,7.389,27.832,30.983,38.889,29.63c5.482-0.671,16.077-13.686,19.444-17.593c4.745-5.505,13.456-15.939,13.889-24.074
		c0.828-15.546-14.311-23.188-16.666-36.111c-5.964-2.182-11.252-9.573-18.519-7.408c-0.67,7.525,8.89,15.199,1.852,20.371
		c-7.17-3.941-6.979-15.243-12.037-21.296C688.107,147.058,683.839,148.963,678.704,150z M549.074,155.556
		c-7.981,11.154-8.412,29.859-19.444,37.963c-0.9-12.686,8.312-23.128,11.11-35.185c-8.757,4.192-17.627,15.829-22.222,27.778
		c-2.121,5.516-5.77,14.14-6.481,20.37c-2.02,17.669,8.978,26.09,16.667,36.111c5.519,7.193,13.532,23.302,21.296,24.074
		c7.587,0.755,15.67-8.792,22.223-14.815c7.256-6.669,15.943-12.101,20.37-16.667c21.187-21.848-5.84-34.088-13.889-51.852
		c-4.888-10.785-2.195-21.47-13.89-24.074c-4.632,8.618,0.495,24.372-0.926,32.407c-8.496-2.188-4.366-20.725-5.556-34.259
		C555.283,156.754,552.414,155.92,549.074,155.556z M763.889,161.111c-1.937,7.633,7.997,11.747,2.778,16.667
		c-8.342-1.535-7.034-12.719-12.037-17.593c-5.884-0.328-10.187,0.925-14.815,1.852c7.544,13.122,15.938,30.481,4.63,45.37
		c18.795,16.163,34.563,0.471,42.593-12.963c-12.682-4.618-15.461-22.897-8.334-35.185
		C773.328,159.439,766.718,158.385,763.889,161.111z M866.667,162.037c-1.065,13.75-4.703,24.927-10.186,34.259
		c9.022,4.866,10.558,17.22,20.37,21.296c6.152-7.615,21.486-13.148,24.074-24.074c1.878-7.929-3.553-17.232,1.852-25.926
		c-3.549-2.624-9.747-2.599-15.74-2.778c-3.505,7.298,0.124,21.729-5.556,26.852c-5.763-5.279-1.648-20.224-1.852-28.704
		C874.911,161.744,871.204,161.417,866.667,162.037z M48.148,212.963c0.501,6.725,5.537,15.128,8.333,22.222
		c2.984,7.569,5.767,15.117,10.185,21.296c9.106,0.422,18.678-5.167,27.778-9.259c8.41-3.781,19.42-7.596,24.074-13.889
		c9.509-12.858,12.978-46.633-1.852-54.63c-4,7.11,4.097,26.319-5.555,27.778c-9.78-5.348,2.551-25.604-3.704-33.333
		c-6.587,0.141-8.319,7.736-12.037,12.037c-3.545,4.103-9.168,7.524-12.963,11.111c-3.567,3.372-7.32,12.184-12.963,7.407
		c3.508-5.509,8.517-11.422,13.889-16.667c4.733-4.621,13.643-9.178,11.111-15.741C76.29,180.328,46.409,189.618,48.148,212.963z
		 M409.259,174.074c-2.376-1.711-10.52-1.296-12.963,0c-1.537,8.118,6.583,21.785-1.852,25c-3.98-5.896-1.39-18.363-5.556-24.074
		c-5.332-0.084-10.043,0.45-12.963,2.778c0.724,12.056-2.458,19.845-4.629,28.704c-1.383,5.641-0.971,15.63-7.408,13.889
		c-3.021-11.801,7.68-25.551,6.481-41.667c-10.115,4.5-14.059,17.638-18.518,27.778c-6.524,14.832-15.044,28.562-17.593,46.296
		c8.031,8.087,17.739,12.6,28.704,20.37c10.614,7.522,27.064,22.789,39.815,12.037c8.351-7.042,12.91-16.973,22.222-27.778
		c8.501-9.863,19.857-17.314,23.148-27.777c3.063-9.737-1.834-13.313-4.629-19.445c-5.39-11.821-7.711-33.278-24.074-34.259
		c1.559,12.749,11.636,26.488,10.185,36.111C416.953,205.269,419.377,183.4,409.259,174.074z M238.889,175
		c-4.019,6.115-8.055,13.297-11.111,21.296c-2.516,6.585-2.279,17.356-9.259,17.592c-2.663-14.799,10.002-26.902,11.111-37.963
		c-8.185,3.612-15.315,12.922-21.296,22.222c-5.345,8.312-13.631,18.458-17.593,25.926c-7.942,14.972,0.417,31.31,9.259,41.667
		c3.922,4.594,15.544,17.927,22.222,17.593c6.054-0.304,15.77-13.918,20.371-18.519c6.922-6.923,15.205-13.798,19.444-19.445
		c11.473-15.283,5.684-31.307,0.926-49.074c-2.129-7.95-3.132-19.671-11.111-20.371c-7.859,4.487-1.384,23.308-10.186,26.852
		c-4.79-6.852,2.442-21.116,0.926-27.778C241.358,175,240.124,175,238.889,175z M640.74,261.111
		c10.913-1.598,19.273-32.807,25-42.593c-7.415-10.765-22.372-22.547-14.814-39.815c-5.519-2.182-14.355-0.341-18.519,1.852
		c-1.538,6.449,4.427,9.383,1.852,13.889c-7.712,2.898-7.689-8.621-12.036-12.037c-9.479,0.397-16.634,3.12-24.074,5.556
		c11.22,12.67,19.158,35.101,5.556,50.926C614.222,240.769,628.986,262.832,640.74,261.111z M488.889,212.037
		c-2.324,8.005,7.1,22.187-2.777,23.148c-2.709-6.859-4.374-14.762-7.408-21.296c-7.293,1.041-14.193,2.474-18.519,6.481
		c0.723,16.464-10.082,21.4-14.815,32.408c13.467,4.894,24.229,22.117,39.815,19.444c14.532-2.492,19.451-22.279,28.704-32.407
		c-4.648-9.368-15.204-17.339-12.037-31.481C495.986,208.023,492.274,209.867,488.889,212.037z M138.889,213.889
		c-2.916,14.06-10.146,23.805-18.519,32.408c10.851,3.711,12.13,22.25,23.148,23.148c4.568,0.373,13.681-6.2,18.519-9.259
		c6.246-3.949,12.399-7.98,15.741-12.963c-4.031-9.788,0.653-18.193,2.778-26.852c-6.174-0.925-11.276-2.921-18.519-2.777
		c-5.581,6.764-0.167,24.525-10.185,26.852c-3.934-7.271,0.473-20.729,1.852-28.704
		C149.902,214.348,143.546,211.435,138.889,213.889z M301.852,229.63c-2.231,4.25-0.958,12.006-7.408,12.037
		c-5.777-2.253-0.111-7.583-0.926-12.963c-4.012,0-8.025,0-12.037,0c-2.685,9.352-6.861,17.213-12.963,23.148
		c7.404,6.359,27.819,30.893,39.815,30.556c9.308-0.261,14.25-12.706,22.222-17.592c-8.767-7.219-6.204-22.798-3.704-35.185
		C320.917,227.798,310.205,226.394,301.852,229.63z"/>
</g>
</svg>
